<?xml version="1.0" encoding="iso-8859-1" standalone="no"?>
<!DOCTYPE svg PUBLIC "-//W3C//DTD SVG 20010904//EN" 
  "http://www.w3.org/TR/2001/REC-SVG-20010904/DTD/svg10.dtd" [ 
<!ENTITY ff "font-family:">
<!ENTITY fs "font-size:">
<!ENTITY fw "font-weight:">
<!ENTITY fst "font-style:">
<!ENTITY sw "stroke-width:">
<!ENTITY as "text-anchor:start;">
<!ENTITY am "text-anchor:middle;">
<!ENTITY ae "text-anchor:end;">
]>
<!-- Generated by ploticus (http://ploticus.sourceforge.net/)
Title: ploticus-graphic
SVG Driver by B.Traill
-->
<svg xmlns="http://www.w3.org/2000/svg" 
  viewBox="0 0 365.04 484.72"      
  xmlns:xlink="http://www.w3.org/1999/xlink"
>
<g transform="translate(-57.60,8.96 )" >                                                         

<g style="fill:#000000;stroke:#000000;&ff;Helvetica;">
<g style="&sw;0.6;&fs;14pt;&am;">
<text x="229.32" y="19.44" stroke="none">VolanoMark 2.5 Performance</text>
</g><g style="&sw;0.6;&fs;8pt;&am;">
<text x="229.32" y="30.24" stroke="none">Messages per second with 200 loopback connections</text>
</g><g style="&sw;0.5;&fs;8pt;&am;">
<path d="M72 63.32l314.6 0l0 -10.8l-314.6 0z" fill="#0066cc" stroke="#0066cc"/>
<path d="M72 63.32l314.6 0l0 -10.8l-314.6 0l0 10.8" fill="none"/>
<path d="M72 89.56l280.8 0l0 -10.8l-280.8 0z" fill="#ff0000" stroke="#ff0000"/>
<path d="M72 89.56l280.8 0l0 -10.8l-280.8 0l0 10.8" fill="none"/>
<path d="M72 115.8l279.6 0l0 -10.8l-279.6 0z" fill="#0066cc" stroke="#0066cc"/>
<path d="M72 115.8l279.6 0l0 -10.8l-279.6 0l0 10.8" fill="none"/>
<path d="M72 142l271.5 0l0 -10.8l-271.5 0z" fill="#0066cc" stroke="#0066cc"/>
<path d="M72 142l271.5 0l0 -10.8l-271.5 0l0 10.8" fill="none"/>
<path d="M72 168.3l266.2 0l0 -10.8l-266.2 0z" fill="#0066cc" stroke="#0066cc"/>
<path d="M72 168.3l266.2 0l0 -10.8l-266.2 0l0 10.8" fill="none"/>
<path d="M72 194.5l263.6 0l0 -10.8l-263.6 0z" fill="#ff0000" stroke="#ff0000"/>
<path d="M72 194.5l263.6 0l0 -10.8l-263.6 0l0 10.8" fill="none"/>
<path d="M72 220.8l248.1 0l0 -10.8l-248.1 0z" fill="#ff0000" stroke="#ff0000"/>
<path d="M72 220.8l248.1 0l0 -10.8l-248.1 0l0 10.8" fill="none"/>
<path d="M72 247l240.6 0l0 -10.8l-240.6 0z" fill="#ff0000" stroke="#ff0000"/>
<path d="M72 247l240.6 0l0 -10.8l-240.6 0l0 10.8" fill="none"/>
<path d="M72 273.2l220.6 0l0 -10.8l-220.6 0z" fill="#ff0000" stroke="#ff0000"/>
<path d="M72 273.2l220.6 0l0 -10.8l-220.6 0l0 10.8" fill="none"/>
<path d="M72 299.5l189.1 0l0 -10.8l-189.1 0z" fill="#00b200" stroke="#00b200"/>
<path d="M72 299.5l189.1 0l0 -10.8l-189.1 0l0 10.8" fill="none"/>
<path d="M72 325.7l172.3 0l0 -10.8l-172.3 0z" fill="#00b200" stroke="#00b200"/>
<path d="M72 325.7l172.3 0l0 -10.8l-172.3 0l0 10.8" fill="none"/>
<path d="M72 352l116.5 0l0 -10.8l-116.5 0z" fill="#0066cc" stroke="#0066cc"/>
<path d="M72 352l116.5 0l0 -10.8l-116.5 0l0 10.8" fill="none"/>
<path d="M72 378.2l103.8 0l0 -10.8l-103.8 0z" fill="#0066cc" stroke="#0066cc"/>
<path d="M72 378.2l103.8 0l0 -10.8l-103.8 0l0 10.8" fill="none"/>
<path d="M72 404.4l103.8 0l0 -10.8l-103.8 0z" fill="#ff0000" stroke="#ff0000"/>
<path d="M72 404.4l103.8 0l0 -10.8l-103.8 0l0 10.8" fill="none"/>
<path d="M72 430.7l80.17 0l0 -10.8l-80.17 0z" fill="#ff9e23" stroke="#ff9e23"/>
<path d="M72 430.7l80.17 0l0 -10.8l-80.17 0l0 10.8" fill="none"/>
</g><g style="&sw;0.5;&fs;7pt;&as;">
<text x="390.24" y="60.08" stroke="none">4906</text>
<text x="356.38" y="86.32" stroke="none">4378</text>
<text x="355.22" y="112.56" stroke="none">4360</text>
<text x="347.08" y="138.80" stroke="none">4233</text>
<text x="341.75" y="165.04" stroke="none">4150</text>
<text x="339.19" y="191.28" stroke="none">4110</text>
<text x="323.73" y="217.52" stroke="none">3869</text>
<text x="316.17" y="243.76" stroke="none">3751</text>
<text x="296.16" y="270.00" stroke="none">3439</text>
<text x="264.73" y="296.24" stroke="none">2949</text>
<text x="247.93" y="322.48" stroke="none">2687</text>
<text x="192.13" y="348.72" stroke="none">1817</text>
<text x="179.37" y="374.96" stroke="none">1618</text>
<text x="179.37" y="401.20" stroke="none">1618</text>
<text x="155.77" y="427.44" stroke="none">1250</text>
</g><g style="&sw;0.5;&fs;8pt;&as;">
<text x="72.00" y="50.12" stroke="none">IBM 1.3.1 Windows</text>
<text x="72.00" y="76.36" stroke="none">IBM 1.4.0 Linux</text>
<text x="72.00" y="102.60" stroke="none">Sun 1.3.1 Windows</text>
<text x="72.00" y="128.84" stroke="none">Sun 1.4.1 Windows</text>
<text x="72.00" y="155.08" stroke="none">BEA 3.1 Windows</text>
<text x="72.00" y="181.32" stroke="none">IBM 1.3.1 Linux</text>
<text x="72.00" y="207.56" stroke="none">Sun 1.3.1 Linux</text>
<text x="72.00" y="233.80" stroke="none">Blackdown 1.4.1 Linux</text>
<text x="72.00" y="260.04" stroke="none">Sun 1.4.1 Linux</text>
<text x="72.00" y="286.28" stroke="none">Sun 1.4.1 Solaris</text>
<text x="72.00" y="312.52" stroke="none">Sun 1.3.1 Solaris</text>
<text x="72.00" y="338.76" stroke="none">BEA 7.0 Windows</text>
<text x="72.00" y="365.00" stroke="none">BEA 8.1 Windows</text>
<text x="72.00" y="391.24" stroke="none">Blackdown 1.3.1 Linux</text>
<text x="72.00" y="417.48" stroke="none">Blackdown 1.3.1 FreeBSD</text>
<path d="M210.2 449.2l0 -7.2l7.2 0l0 7.2z" fill="#0066cc" stroke="#0066cc"/>
<text x="224.64" y="449.20" stroke="none">Windows 2000</text>
<path d="M210.2 461.4l0 -7.2l7.2 0l0 7.2z" fill="#ff0000" stroke="#ff0000"/>
<text x="224.64" y="461.36" stroke="none">Red Hat Linux 8.0</text>
<path d="M336.2 449.2l0 -7.2l7.2 0l0 7.2z" fill="#00b200" stroke="#00b200"/>
<text x="350.64" y="449.20" stroke="none">Solaris 8</text>
<path d="M336.2 461.4l0 -7.2l7.2 0l0 7.2z" fill="#ff9e23" stroke="#ff9e23"/>
<text x="350.64" y="461.36" stroke="none">FreeBSD 4.6</text>
</g></g>
</g>
</svg>
