<?xml version="1.0" encoding="iso-8859-1" standalone="no"?>
<!DOCTYPE svg PUBLIC "-//W3C//DTD SVG 20010904//EN" 
  "http://www.w3.org/TR/2001/REC-SVG-20010904/DTD/svg10.dtd" [ 
<!ENTITY ff "font-family:">
<!ENTITY fs "font-size:">
<!ENTITY fw "font-weight:">
<!ENTITY fst "font-style:">
<!ENTITY sw "stroke-width:">
<!ENTITY as "text-anchor:start;">
<!ENTITY am "text-anchor:middle;">
<!ENTITY ae "text-anchor:end;">
]>
<!-- Generated by ploticus (http://ploticus.sourceforge.net/)
Title: ploticus-graphic
SVG Driver by B.Traill
-->
<svg xmlns="http://www.w3.org/2000/svg" 
  viewBox="0 0 365.04 484.72"      
  xmlns:xlink="http://www.w3.org/1999/xlink"
>
<g transform="translate(-57.60,8.96 )" >                                                         

<g style="fill:#000000;stroke:#000000;&ff;Helvetica;">
<g style="&sw;0.6;&fs;14pt;&am;">
<text x="225.72" y="19.44" stroke="none">VolanoMark 2.5 Network Scalability</text>
</g><g style="&sw;0.6;&fs;8pt;&am;">
<text x="225.72" y="30.24" stroke="none">Maximum number of client network connections</text>
</g><g style="&sw;0.5;&fs;8pt;&am;">
<path d="M72 63.32l92.23 0l0 -10.8l-92.23 0z" fill="#0066cc" stroke="#0066cc"/>
<path d="M72 63.32l92.23 0l0 -10.8l-92.23 0l0 10.8" fill="none"/>
<path d="M72 89.56l3.074 0l0 -10.8l-3.074 0z" fill="#ff0000" stroke="#ff0000"/>
<path d="M72 89.56l3.074 0l0 -10.8l-3.074 0l0 10.8" fill="none"/>
<path d="M72 115.8l92.23 0l0 -10.8l-92.23 0z" fill="#0066cc" stroke="#0066cc"/>
<path d="M72 115.8l92.23 0l0 -10.8l-92.23 0l0 10.8" fill="none"/>
<path d="M72 142l92.23 0l0 -10.8l-92.23 0z" fill="#0066cc" stroke="#0066cc"/>
<path d="M72 142l92.23 0l0 -10.8l-92.23 0l0 10.8" fill="none"/>
<path d="M72 168.3l307.4 0l0 -10.8l-307.4 0z" fill="#0066cc" stroke="#0066cc"/>
<path d="M72 168.3l307.4 0l0 -10.8l-307.4 0l0 10.8" fill="none"/>
<path d="M72 194.5l30.74 0l0 -10.8l-30.74 0z" fill="#ff0000" stroke="#ff0000"/>
<path d="M72 194.5l30.74 0l0 -10.8l-30.74 0l0 10.8" fill="none"/>
<path d="M72 220.8l3.074 0l0 -10.8l-3.074 0z" fill="#ff0000" stroke="#ff0000"/>
<path d="M72 220.8l3.074 0l0 -10.8l-3.074 0l0 10.8" fill="none"/>
<path d="M72 247l30.74 0l0 -10.8l-30.74 0z" fill="#ff0000" stroke="#ff0000"/>
<path d="M72 247l30.74 0l0 -10.8l-30.74 0l0 10.8" fill="none"/>
<path d="M72 273.2l30.74 0l0 -10.8l-30.74 0z" fill="#ff0000" stroke="#ff0000"/>
<path d="M72 273.2l30.74 0l0 -10.8l-30.74 0l0 10.8" fill="none"/>
<path d="M72 299.5l123 0l0 -10.8l-123 0z" fill="#00b200" stroke="#00b200"/>
<path d="M72 299.5l123 0l0 -10.8l-123 0l0 10.8" fill="none"/>
<path d="M72 325.7l123 0l0 -10.8l-123 0z" fill="#00b200" stroke="#00b200"/>
<path d="M72 325.7l123 0l0 -10.8l-123 0l0 10.8" fill="none"/>
<path d="M72 352l307.4 0l0 -10.8l-307.4 0z" fill="#0066cc" stroke="#0066cc"/>
<path d="M72 352l307.4 0l0 -10.8l-307.4 0l0 10.8" fill="none"/>
<path d="M72 378.2l307.4 0l0 -10.8l-307.4 0z" fill="#0066cc" stroke="#0066cc"/>
<path d="M72 378.2l307.4 0l0 -10.8l-307.4 0l0 10.8" fill="none"/>
<path d="M72 404.4l307.4 0l0 -10.8l-307.4 0z" fill="#ff0000" stroke="#ff0000"/>
<path d="M72 404.4l307.4 0l0 -10.8l-307.4 0l0 10.8" fill="none"/>
<path d="M72 430.7l184.5 0l0 -10.8l-184.5 0z" fill="#ff9e23" stroke="#ff9e23"/>
<path d="M72 430.7l184.5 0l0 -10.8l-184.5 0l0 10.8" fill="none"/>
</g><g style="&sw;0.5;&fs;7pt;&as;">
<text x="167.83" y="60.08" stroke="none">3000</text>
<text x="78.67" y="86.32" stroke="none">&lt;1000</text>
<text x="167.83" y="112.56" stroke="none">3000</text>
<text x="167.83" y="138.80" stroke="none">3000</text>
<text x="383.04" y="165.04" stroke="none">10000+</text>
<text x="106.34" y="191.28" stroke="none">1000</text>
<text x="78.67" y="217.52" stroke="none">&lt;1000</text>
<text x="106.34" y="243.76" stroke="none">1000</text>
<text x="106.34" y="270.00" stroke="none">1000</text>
<text x="198.58" y="296.24" stroke="none">4000</text>
<text x="198.58" y="322.48" stroke="none">4000</text>
<text x="383.04" y="348.72" stroke="none">10000+</text>
<text x="383.04" y="374.96" stroke="none">10000+</text>
<text x="383.04" y="401.20" stroke="none">10000+</text>
<text x="260.06" y="427.44" stroke="none">6000</text>
</g><g style="&sw;0.5;&fs;8pt;&as;">
<text x="72.00" y="50.12" stroke="none">IBM 1.3.1 Windows</text>
<text x="72.00" y="76.36" stroke="none">IBM 1.4.0 Linux</text>
<text x="72.00" y="102.60" stroke="none">Sun 1.3.1 Windows</text>
<text x="72.00" y="128.84" stroke="none">Sun 1.4.1 Windows</text>
<text x="72.00" y="155.08" stroke="none">BEA 3.1 Windows</text>
<text x="72.00" y="181.32" stroke="none">IBM 1.3.1 Linux</text>
<text x="72.00" y="207.56" stroke="none">Sun 1.3.1 Linux</text>
<text x="72.00" y="233.80" stroke="none">Blackdown 1.4.1 Linux</text>
<text x="72.00" y="260.04" stroke="none">Sun 1.4.1 Linux</text>
<text x="72.00" y="286.28" stroke="none">Sun 1.4.1 Solaris</text>
<text x="72.00" y="312.52" stroke="none">Sun 1.3.1 Solaris</text>
<text x="72.00" y="338.76" stroke="none">BEA 7.0 Windows</text>
<text x="72.00" y="365.00" stroke="none">BEA 8.1 Windows</text>
<text x="72.00" y="391.24" stroke="none">Blackdown 1.3.1 Linux</text>
<text x="72.00" y="417.48" stroke="none">Blackdown 1.3.1 FreeBSD</text>
<path d="M203 449.2l0 -7.2l7.2 0l0 7.2z" fill="#0066cc" stroke="#0066cc"/>
<text x="217.44" y="449.20" stroke="none">Windows 2000</text>
<path d="M203 461.4l0 -7.2l7.2 0l0 7.2z" fill="#ff0000" stroke="#ff0000"/>
<text x="217.44" y="461.36" stroke="none">Red Hat Linux 8.0</text>
<path d="M329 449.2l0 -7.2l7.2 0l0 7.2z" fill="#00b200" stroke="#00b200"/>
<text x="343.44" y="449.20" stroke="none">Solaris 8</text>
<path d="M329 461.4l0 -7.2l7.2 0l0 7.2z" fill="#ff9e23" stroke="#ff9e23"/>
<text x="343.44" y="461.36" stroke="none">FreeBSD 4.6</text>
</g></g>
</g>
</svg>
